<svg xmlns="http://www.w3.org/2000/svg" xmlns:xlink="http://www.w3.org/1999/xlink" version="1.1" x="0px" y="0px" viewBox="0 0 100 125" style="enable-background:new 0 0 100 100;" xml:space="preserve"><path d="M67.5,58.5C58.4,58.5,51,65.9,51,75s7.4,16.5,16.5,16.5S84,84.1,84,75S76.6,58.5,67.5,58.5z M67.5,88.5  C60.1,88.5,54,82.4,54,75s6.1-13.5,13.5-13.5S81,67.6,81,75S74.9,88.5,67.5,88.5z M76.1,73.9c0.3,0.3,0.4,0.6,0.4,1  c0,0.1,0,0.2,0,0.3c0,0.3-0.2,0.6-0.4,0.8c0,0-0.1,0.1-0.1,0.1l-5,5c-0.3,0.3-0.7,0.4-1.1,0.4s-0.8-0.1-1.1-0.4  c-0.6-0.6-0.6-1.5,0-2.1l2.4-2.4H60c-0.8,0-1.5-0.7-1.5-1.5s0.7-1.5,1.5-1.5h11.4l-2.4-2.4c-0.3-0.3-0.4-0.7-0.4-1.1  s0.1-0.8,0.4-1.1c0.6-0.6,1.5-0.6,2.1,0L76.1,73.9C76.1,73.9,76.1,73.9,76.1,73.9z M62.8,8c1.1,0,2,0.9,2,2s-0.9,2-2,2H18.7  c-1.1,0-2-0.9-2-2s0.9-2,2-2H62.8z M69.5,53.1V15c0-1.1-0.9-2-2-2H18c-1.9,0-3.5-1.3-3.5-3s1.6-3,3.5-3h49.5c1.1,0,2-0.9,2-2  s-0.9-2-2-2H18c-4.1,0-7.5,3.1-7.5,7v59c0,4.4,3.9,8,8.6,8h26.5c1,11.2,10.4,20,21.9,20c12.1,0,22-9.9,22-22  C89.5,63.5,80.7,54.1,69.5,53.1z M14.5,69V16.2c1,0.5,2.2,0.8,3.5,0.8h47.5v36.1C55,54,46.5,62.5,45.6,73H19.1  C16.6,73,14.5,71.2,14.5,69z M67.5,93c-9.9,0-18-8.1-18-18s8.1-18,18-18s18,8.1,18,18S77.4,93,67.5,93z M29.4,55.6  c-5.9-5.9-5.9-15.4,0-21.2C32.3,31.5,36.2,30,40,30c-2.2,0.5-4.3,1.6-6,3.3c-4.9,4.9-4.9,12.8,0,17.7c4.9,4.9,12.8,4.9,17.7,0  c1.7-1.7,2.8-3.8,3.3-6c0,3.8-1.5,7.7-4.4,10.6C44.7,61.5,35.3,61.5,29.4,55.6z M40.4,42.9l2.2-3l-1.2-3.5l3.5,1.2l3-2.2l0,3.7  l3,2.1l-3.5,1.1l-1.1,3.5l-2.1-3L40.4,42.9z"/></svg>