<svg xmlns="http://www.w3.org/2000/svg" version="1.1" viewBox="-5.0 -10.0 110.0 135.0">
    <path
        d="m97.828 10.484c-0.37891-0.29688-0.875-0.39844-1.3438-0.28125l-7.8125 2.0469-3.125-3.125h-0.09375l-0.15625-0.14062-0.20312-0.09375h-0.34375c-4.8594-1.4688-26.938 4.1875-34.75 11.422-3.3594-3.125-9.0625-5.7031-13.531-7.3438-2.2031-0.79688-4.3438-1.5625-6.3438-2.0469-2-0.59375-11.578-3.2188-14.781-2.2969h-0.28125c-0.11719 0.042969-0.22656 0.10156-0.32812 0.17188h-0.1875l-3.2656 3.4844-7.8125-2.0781c-0.47266-0.125-0.97656-0.019531-1.3594 0.28125-0.35938 0.30859-0.5625 0.76172-0.54688 1.2344v19.531c0 0.86328 0.69922 1.5625 1.5625 1.5625s1.5625-0.69922 1.5625-1.5625v-17.5l4.0469 1.0938-0.46875 0.45312c-0.29297 0.29297-0.45703 0.69531-0.45312 1.1094v37.5 0.10938c-0.015625 0.082031-0.015625 0.16797 0 0.25-0.007812 0.050781-0.007812 0.10547 0 0.15625 0.027344 0.082031 0.0625 0.16016 0.10938 0.23438l0.09375 0.14062c0.046875 0.074219 0.10547 0.14453 0.17188 0.20312l0.125 0.10938 0.25 0.14062h0.09375l32.906 11.125 3.6094 1.3594c0.17578 0.0625 0.35938 0.09375 0.54688 0.09375h2.7188v4.0625l-0.85938-0.3125-23.312-7.9219-19.578-7.6875v-20.031c0-0.86328-0.69922-1.5625-1.5625-1.5625s-1.5625 0.69922-1.5625 1.5625v21.094c0 0.64062 0.39062 1.2148 0.98438 1.4531l16.641 6.5312-13.438 4.5938c-0.66406 0.22266-1.0977 0.86328-1.0625 1.5625v3.8281c0 0.41406 0.16406 0.8125 0.45703 1.1055s0.69141 0.45703 1.1055 0.45703c1.7266 0 3.125 1.3984 3.125 3.125s-1.3984 3.125-3.125 3.125c-0.86328 0-1.5625 0.69922-1.5625 1.5625v5.4688c0 0.50781 0.25 0.98438 0.66406 1.2773 0.41797 0.29297 0.94922 0.36328 1.4297 0.19141l41.656-14.875v1.9688c-1.8672 0.66016-3.1211 2.4258-3.125 4.4062v6.25c0 0.41406 0.16406 0.8125 0.45703 1.1055s0.69141 0.45703 1.1055 0.45703h6.25c0.41406 0 0.8125-0.16406 1.1055-0.45703s0.45703-0.69141 0.45703-1.1055v-6.25c0-1.2422-0.49609-2.4336-1.375-3.3125-0.49609-0.48828-1.0938-0.85938-1.75-1.0938v-1.9688l16.75 5.9844c0.81641 0.28906 1.7109-0.13672 2-0.95312s-0.13672-1.7109-0.95312-2l-14.672-5.2188 21.562-7.4688 15.938 5.4375v1.4219c-2.75 0.71875-4.668 3.2031-4.668 6.0469s1.918 5.3281 4.668 6.0469v1.8906l-18.516-6.6094c-0.39844-0.17188-0.84766-0.17188-1.2422 0.003906-0.39453 0.17188-0.70313 0.5-0.84766 0.90625s-0.11719 0.85547 0.082031 1.2383c0.19922 0.38672 0.54688 0.67188 0.96094 0.78906l20.594 7.3594c0.48047 0.17188 1.0117 0.10156 1.4297-0.19141 0.41406-0.29297 0.66406-0.76953 0.66406-1.2773v-5.4688c0-0.41406-0.16406-0.8125-0.45703-1.1055s-0.69141-0.45703-1.1055-0.45703c-1.7266 0-3.125-1.3984-3.125-3.125s1.3984-3.125 3.125-3.125c0.41406 0 0.8125-0.16406 1.1055-0.45703s0.45703-0.69141 0.45703-1.1055v-3.9062c0.035156-0.69922-0.39844-1.3398-1.0625-1.5625l-13.438-4.5938 16.641-6.5312c0.57031-0.22656 0.95312-0.76172 0.98438-1.375v-45.312c0-0.48438-0.22656-0.9375-0.60938-1.2344zm-46.266 49.891 0.40625 0.10938 0.25 0.09375 0.5625 0.23438 0.34375 0.125 0.46875 0.29688 0.26562 0.1875c0.15625 0.12109 0.30859 0.25391 0.45312 0.39062l0.1875 0.17188c0.21094 0.20312 0.40234 0.42188 0.57812 0.65625 0.15625 0.21484 0.29688 0.4375 0.42188 0.67188 0 0.09375 0 0.17188 0.125 0.25 0.058594 0.12109 0.10938 0.24609 0.15625 0.375l-2.2344 0.82812h-1.9844zm7.1562 2.5938c-0.054688-0.12109-0.11719-0.24219-0.1875-0.35938-0.125-0.30859-0.26953-0.60547-0.4375-0.89062-0.09375-0.17188-0.20312-0.32812-0.3125-0.5s-0.35938-0.51562-0.5625-0.76562l-0.40625-0.45312c-0.21875-0.23047-0.44531-0.44922-0.6875-0.65625l-0.4375-0.375c-0.29688-0.21875-0.60938-0.42188-0.92188-0.60938-0.09375-0.066406-0.19531-0.12891-0.29688-0.1875 0.34375-0.26562 0.70312-0.5 1.0625-0.73438s0.35938-0.26562 0.5625-0.39062l0.14062-0.09375c0.54688-0.34375 1.125-0.67188 1.7188-0.98438h0.09375l0.32812-0.17188c0.625-0.32812 1.2812-0.64062 1.9375-0.9375l0.67188-0.28125 1.5625-0.625 0.90625-0.32812 1.3906-0.5 0.98438-0.3125 1.3438-0.40625 1-0.28125 1.2969-0.34375 1.0156-0.25 1.25-0.29688 0.98438-0.21875 1.2031-0.25 0.9375-0.17188 1.125-0.20312 0.875-0.15625 1.0625-0.17188 0.78125-0.10938 0.95312-0.14062 0.70312-0.09375 0.89062-0.1875h0.54688l0.76562-0.078125h1.1562l3.9531 3.9688zm27.219-15.953v-33.094l1.1562 1.1719 1.9688 1.9531v33.094zm-3.125-0.79688h-4.1406l-0.53125 0.078125h-0.46875l-0.54688 0.09375h-0.09375l-0.46875 0.078125-0.64062 0.10938-0.51562 0.09375h-0.59375l-0.5625 0.10938-0.67188 0.125h-0.5625l-0.70312 0.15625-0.57812 0.125-0.64062 0.14062h-0.125l-0.54688 0.14062-0.73438 0.17188-0.60938 0.15625h-0.39062l-0.40625 0.10938-0.625 0.15625-0.75 0.21875-0.35938 0.09375h-0.23438l-0.6875 1.1562-0.64062 0.20312-0.65625 0.21875-0.26562 0.046875-0.5625 0.1875-0.75 0.26562-0.625 0.23438h-0.3125l-0.42188 0.15625-0.625 0.25-0.71875 0.29688-0.39062 0.17188h-0.1875l-0.70312 0.32812-0.60938 0.28125-0.59375 0.28125-0.1875 0.09375-0.51562 0.26562-0.65625 0.35938-0.59375 0.32812-0.14062 0.078125h-0.125l-0.35938 0.21875c-0.20312 0.10938-0.39062 0.23438-0.57812 0.35938l-0.60938 0.39062-0.35938 0.23438-0.125 0.09375-0.5625 0.40625-0.53125 0.40625-0.45312 0.35938-0.10938 0.078125v-32.891c6-6.7031 26.172-11.547 31.25-11.719zm-51.562-31.703c1.0156 0.3125 2.0625 0.65625 3.125 1.0312v18.188l-0.46875-0.46875c-0.29297-0.28906-0.68359-0.45312-1.0938-0.45312-0.41406-0.003906-0.81641 0.16016-1.1094 0.45312l-0.4375 0.45312zm-3.125 4.6875c-1.707-0.16797-3.4258-0.22266-5.1406-0.15625-0.42969 0-0.83984 0.17578-1.1328 0.48438-0.29687 0.3125-0.44922 0.72656-0.42969 1.1562 0.019531 0.41406 0.20312 0.80469 0.51172 1.082 0.30859 0.27734 0.71484 0.42188 1.1289 0.40234 1.6641-0.070313 3.3281-0.011719 4.9844 0.17188v7.8125c-1.707-0.16797-3.4258-0.22266-5.1406-0.15625-0.42969 0-0.83984 0.17578-1.1328 0.48438-0.29688 0.3125-0.44922 0.72656-0.42969 1.1562 0.019531 0.41406 0.20312 0.80469 0.51172 1.082 0.30859 0.27734 0.71484 0.42188 1.1289 0.40234 1.6641-0.070312 3.3281-0.011719 4.9844 0.17188v4.2031c0.003906 0.62891 0.38672 1.1992 0.96875 1.4375 0.58203 0.24609 1.2539 0.11328 1.7031-0.32812l2.1719-2.0312 2.0312 2.0312c0.13281 0.13281 0.29297 0.23438 0.46875 0.29688h0.14062c0.13672 0.015625 0.26953 0.015625 0.40625 0h0.078125c0.18359 0 0.36328-0.035156 0.53125-0.10938 0.5625-0.19922 0.96484-0.70312 1.0312-1.2969v-1.7969c1.8867 0.83984 3.6758 1.8867 5.3281 3.125 0.27734 0.17188 0.59766 0.25391 0.92188 0.23438 0.67969 0.003906 1.2812-0.43359 1.4922-1.0781 0.21094-0.64453-0.019532-1.3516-0.57031-1.75-2.2148-1.6016-4.625-2.9102-7.1719-3.8906v-7.5781c1.8867 0.83984 3.6758 1.8867 5.3281 3.125 0.27734 0.17188 0.59766 0.25391 0.92188 0.23438 0.67969 0.003906 1.2812-0.43359 1.4922-1.0781 0.21094-0.64453-0.019532-1.3516-0.57031-1.75-2.2148-1.6016-4.625-2.9102-7.1719-3.8906v-4.6875c5.1875 2.0938 9.0156 4.3594 10.938 6.5156v33.219l-0.10938-0.078125-0.45312-0.35938-0.53125-0.40625-0.5625-0.40625h-0.078125l-0.125-0.09375-0.35938-0.23438-0.60938-0.39062c-0.1875-0.125-0.375-0.25-0.57812-0.35938l-0.35938-0.21875h-0.125l-0.14062-0.078125-0.65625-0.45312-0.65625-0.35938-0.51562-0.26562-0.1875-0.09375-0.59375-0.28125-0.60938-0.28125-0.5625-0.32812h-0.1875l-0.51562-0.20312-0.71875-0.29688-0.625-0.25-0.42188-0.15625h-0.3125l-0.625-0.23438-0.75-0.26562-0.53125-0.35938h-0.15625l-0.65625-0.21875-0.64062-0.20312-0.73438-0.21875h-0.23438l-0.35938-0.09375-0.75-0.21875-0.625-0.15625-0.53125-0.23438h-0.32812l-0.60938-0.15625-0.625-0.25-0.54688-0.14062h-0.125l-0.64062-0.14062-0.57812-0.125-0.70312-0.15625h-0.5625l-0.67188-0.125-0.5625-0.10938h-0.59375l-0.51562-0.09375-0.75-0.34375-0.46875-0.14062h-1.0938l-0.53125-0.078125h-4.1562v-35.297c3.707 0.33594 7.3711 1.043 10.938 2.1094zm-14.062 27.812-3.125 3.125v-33.094l1.9219-1.9062 1.2031-1.2188zm2.1562 2.25h1.1719l0.75 0.078125h0.54688l0.85938 0.10938 0.6875 0.09375 0.95312 0.14062 0.78125 0.10938 1.0625 0.17188 0.875 0.15625 1.1406 0.20312 0.92188 0.17188 1.2188 0.25 0.96875 0.21875 1.2656 0.29688 0.98438 0.25 1.3281 0.34375 0.98438 0.28125 1.3594 0.42188 0.95312 0.29688c0.48438 0.15625 0.95312 0.34375 1.4219 0.51562l0.875 0.3125 1.5625 0.64062 0.57812 0.25h0.10938c0.65625 0.29688 1.3125 0.60938 1.9375 0.9375l0.32812 0.17188c0.60938 0.32812 1.2031 0.67188 1.7812 1.0156l0.15625 0.10938c0.1875 0.10938 0.34375 0.23438 0.53125 0.35938s0.73438 0.48438 1.0781 0.75l-0.25 0.15625c-0.33984 0.19922-0.66797 0.41797-0.98438 0.65625-0.14844 0.11328-0.28906 0.23047-0.42188 0.35938-0.25391 0.21484-0.49609 0.44141-0.71875 0.6875-0.13672 0.14453-0.26953 0.29688-0.39062 0.45312-0.20312 0.24609-0.39453 0.50781-0.5625 0.78125-0.11719 0.16016-0.22656 0.32812-0.32812 0.5-0.16016 0.29297-0.30859 0.59766-0.4375 0.90625-0.070313 0.12109-0.13281 0.24609-0.1875 0.375l-28.844-9.5625zm30 15.625-2-0.82812c0.046875-0.13281 0.097656-0.26172 0.15625-0.39062 0-0.078125 0.078125-0.17188 0.125-0.26562 0.14062-0.25391 0.29688-0.5 0.46875-0.73438 0.16406-0.21484 0.34375-0.41797 0.53125-0.60938 0-0.078125 0.14062-0.125 0.20312-0.20312 0.14453-0.13281 0.29688-0.25781 0.45312-0.375l0.26562-0.1875c0.14453-0.12891 0.29688-0.25 0.45312-0.35938l0.28125-0.14062 0.5625-0.25 0.26562-0.09375 0.40625-0.10938v4.5zm-38.406 22.734v-1.8906c2.75-0.71875 4.668-3.2031 4.668-6.0469s-1.918-5.3281-4.668-6.0469v-1.4219l15.906-5.4375 21.594 7.4688zm43.75-4.8125v4.6875h-3.125v-4.6875c0-0.86328 0.69922-1.5625 1.5625-1.5625s1.5625 0.69922 1.5625 1.5625zm43.75-26.844-19.547 7.6875-24.203 8.375v-4.0625h2.2344c0.1875 0 0.37109-0.03125 0.54688-0.09375l3.8281-1.4219 32.953-11.062h0.09375l0.25-0.14062c0.035156-0.042969 0.078125-0.082031 0.125-0.10938 0.066406-0.058594 0.125-0.12891 0.17188-0.20312l0.09375-0.125c0.042969-0.082031 0.078125-0.16406 0.10938-0.25 0.007812-0.050781 0.007812-0.10547 0-0.15625 0.015625-0.089844 0.015625-0.17578 0-0.26562v-0.09375-37.5c0.003906-0.41406-0.16016-0.81641-0.45312-1.1094l-0.5-0.48438 4.2969-1.2188zm-40.328-28.484c-0.24609-0.33594-0.34766-0.75391-0.28125-1.1641 0.0625-0.41016 0.28906-0.78125 0.625-1.0234 6.3047-4.4961 13.957-6.6992 21.688-6.25 0.86328 0.042969 1.5273 0.77734 1.4844 1.6406s-0.77734 1.5273-1.6406 1.4844c-7.0156-0.41797-13.965 1.5781-19.688 5.6562-0.26953 0.19531-0.58984 0.29688-0.92188 0.29688-0.5 0-0.96875-0.23828-1.2656-0.64062zm0 10.938c-0.24609-0.33594-0.34766-0.75391-0.28125-1.1641 0.0625-0.41016 0.28906-0.78125 0.625-1.0234 6.3047-4.4961 13.957-6.6992 21.688-6.25 0.86328 0.042969 1.5273 0.77734 1.4844 1.6406s-0.77734 1.5273-1.6406 1.4844c-7.0156-0.41797-13.965 1.5781-19.688 5.6562-0.26953 0.19531-0.58984 0.29688-0.92188 0.29688-0.5 0-0.96875-0.23828-1.2656-0.64062zm0 9.375c-0.24609-0.33594-0.34766-0.75391-0.28125-1.1641 0.0625-0.41016 0.28906-0.78125 0.625-1.0234 6.3047-4.4961 13.957-6.6992 21.688-6.25 0.86328 0.042969 1.5273 0.77734 1.4844 1.6406s-0.77734 1.5273-1.6406 1.4844c-7.0156-0.41797-13.965 1.5781-19.688 5.6562-0.26953 0.19531-0.58984 0.29688-0.92188 0.29688-0.5 0-0.96875-0.23828-1.2656-0.64062zm-33.469-6.7812c-0.042969-0.85938 0.61328-1.5898 1.4688-1.6406 7.7305-0.45312 15.383 1.7539 21.688 6.25 0.53516 0.40234 0.75781 1.1016 0.54688 1.7383-0.20703 0.63672-0.80078 1.0664-1.4688 1.0742-0.33203 0-0.65234-0.10156-0.92188-0.29688-5.7227-4.0781-12.672-6.0742-19.688-5.6562-0.85156 0.035156-1.5742-0.61719-1.625-1.4688z" />
    
</svg>